<svg xmlns="http://www.w3.org/2000/svg" width="32" height="32" viewBox="0 0 32 32" shape-rendering="crispEdges"><rect x="5" y="1" width="2" height="2" fill="#15150F"/><rect x="7" y="1" width="2" height="2" fill="#15150F"/><rect x="9" y="1" width="2" height="2" fill="#15150F"/><rect x="11" y="1" width="2" height="2" fill="#15150F"/><rect x="19" y="1" width="2" height="2" fill="#15150F"/><rect x="21" y="1" width="2" height="2" fill="#15150F"/><rect x="23" y="1" width="2" height="2" fill="#15150F"/><rect x="25" y="1" width="2" height="2" fill="#15150F"/><rect x="3" y="3" width="2" height="2" fill="#15150F"/><rect x="5" y="3" width="2" height="2" fill="#15150F"/><rect x="7" y="3" width="2" height="2" fill="#B33536"/><rect x="9" y="3" width="2" height="2" fill="#B33536"/><rect x="11" y="3" width="2" height="2" fill="#15150F"/><rect x="13" y="3" width="2" height="2" fill="#15150F"/><rect x="17" y="3" width="2" height="2" fill="#15150F"/><rect x="19" y="3" width="2" height="2" fill="#15150F"/><rect x="21" y="3" width="2" height="2" fill="#B33536"/><rect x="23" y="3" width="2" height="2" fill="#B33536"/><rect x="25" y="3" width="2" height="2" fill="#15150F"/><rect x="27" y="3" width="2" height="2" fill="#15150F"/><rect x="1" y="5" width="2" height="2" fill="#15150F"/><rect x="3" y="5" width="2" height="2" fill="#15150F"/><rect x="5" y="5" width="2" height="2" fill="#B33536"/><rect x="7" y="5" width="2" height="2" fill="#EFE4CE"/><rect x="9" y="5" width="2" height="2" fill="#B33536"/><rect x="11" y="5" width="2" height="2" fill="#B33536"/><rect x="13" y="5" width="2" height="2" fill="#15150F"/><rect x="15" y="5" width="2" height="2" fill="#15150F"/><rect x="17" y="5" width="2" height="2" fill="#15150F"/><rect x="19" y="5" width="2" height="2" fill="#B33536"/><rect x="21" y="5" width="2" height="2" fill="#B33536"/><rect x="23" y="5" width="2" height="2" fill="#B33536"/><rect x="25" y="5" width="2" height="2" fill="#B33536"/><rect x="27" y="5" width="2" height="2" fill="#15150F"/><rect x="29" y="5" width="2" height="2" fill="#15150F"/><rect x="1" y="7" width="2" height="2" fill="#15150F"/><rect x="3" y="7" width="2" height="2" fill="#B33536"/><rect x="5" y="7" width="2" height="2" fill="#EFE4CE"/><rect x="7" y="7" width="2" height="2" fill="#EFE4CE"/><rect x="9" y="7" width="2" height="2" fill="#B33536"/><rect x="11" y="7" width="2" height="2" fill="#B33536"/><rect x="13" y="7" width="2" height="2" fill="#B33536"/><rect x="15" y="7" width="2" height="2" fill="#15150F"/><rect x="17" y="7" width="2" height="2" fill="#B33536"/><rect x="19" y="7" width="2" height="2" fill="#B33536"/><rect x="21" y="7" width="2" height="2" fill="#B33536"/><rect x="23" y="7" width="2" height="2" fill="#B33536"/><rect x="25" y="7" width="2" height="2" fill="#B33536"/><rect x="27" y="7" width="2" height="2" fill="#B33536"/><rect x="29" y="7" width="2" height="2" fill="#15150F"/><rect x="1" y="9" width="2" height="2" fill="#15150F"/><rect x="3" y="9" width="2" height="2" fill="#B33536"/><rect x="5" y="9" width="2" height="2" fill="#B33536"/><rect x="7" y="9" width="2" height="2" fill="#B33536"/><rect x="9" y="9" width="2" height="2" fill="#B33536"/><rect x="11" y="9" width="2" height="2" fill="#B33536"/><rect x="13" y="9" width="2" height="2" fill="#B33536"/><rect x="15" y="9" width="2" height="2" fill="#B33536"/><rect x="17" y="9" width="2" height="2" fill="#B33536"/><rect x="19" y="9" width="2" height="2" fill="#B33536"/><rect x="21" y="9" width="2" height="2" fill="#B33536"/><rect x="23" y="9" width="2" height="2" fill="#B33536"/><rect x="25" y="9" width="2" height="2" fill="#B33536"/><rect x="27" y="9" width="2" height="2" fill="#B33536"/><rect x="29" y="9" width="2" height="2" fill="#15150F"/><rect x="1" y="11" width="2" height="2" fill="#15150F"/><rect x="3" y="11" width="2" height="2" fill="#B33536"/><rect x="5" y="11" width="2" height="2" fill="#B33536"/><rect x="7" y="11" width="2" height="2" fill="#B33536"/><rect x="9" y="11" width="2" height="2" fill="#B33536"/><rect x="11" y="11" width="2" height="2" fill="#B33536"/><rect x="13" y="11" width="2" height="2" fill="#B33536"/><rect x="15" y="11" width="2" height="2" fill="#B33536"/><rect x="17" y="11" width="2" height="2" fill="#B33536"/><rect x="19" y="11" width="2" height="2" fill="#B33536"/><rect x="21" y="11" width="2" height="2" fill="#B33536"/><rect x="23" y="11" width="2" height="2" fill="#B33536"/><rect x="25" y="11" width="2" height="2" fill="#B33536"/><rect x="27" y="11" width="2" height="2" fill="#B33536"/><rect x="29" y="11" width="2" height="2" fill="#15150F"/><rect x="1" y="13" width="2" height="2" fill="#15150F"/><rect x="3" y="13" width="2" height="2" fill="#15150F"/><rect x="5" y="13" width="2" height="2" fill="#B33536"/><rect x="7" y="13" width="2" height="2" fill="#B33536"/><rect x="9" y="13" width="2" height="2" fill="#B33536"/><rect x="11" y="13" width="2" height="2" fill="#B33536"/><rect x="13" y="13" width="2" height="2" fill="#B33536"/><rect x="15" y="13" width="2" height="2" fill="#B33536"/><rect x="17" y="13" width="2" height="2" fill="#B33536"/><rect x="19" y="13" width="2" height="2" fill="#B33536"/><rect x="21" y="13" width="2" height="2" fill="#B33536"/><rect x="23" y="13" width="2" height="2" fill="#B33536"/><rect x="25" y="13" width="2" height="2" fill="#B33536"/><rect x="27" y="13" width="2" height="2" fill="#15150F"/><rect x="29" y="13" width="2" height="2" fill="#15150F"/><rect x="3" y="15" width="2" height="2" fill="#15150F"/><rect x="5" y="15" width="2" height="2" fill="#15150F"/><rect x="7" y="15" width="2" height="2" fill="#B33536"/><rect x="9" y="15" width="2" height="2" fill="#B33536"/><rect x="11" y="15" width="2" height="2" fill="#B33536"/><rect x="13" y="15" width="2" height="2" fill="#B33536"/><rect x="15" y="15" width="2" height="2" fill="#B33536"/><rect x="17" y="15" width="2" height="2" fill="#B33536"/><rect x="19" y="15" width="2" height="2" fill="#B33536"/><rect x="21" y="15" width="2" height="2" fill="#B33536"/><rect x="23" y="15" width="2" height="2" fill="#B33536"/><rect x="25" y="15" width="2" height="2" fill="#15150F"/><rect x="27" y="15" width="2" height="2" fill="#15150F"/><rect x="5" y="17" width="2" height="2" fill="#15150F"/><rect x="7" y="17" width="2" height="2" fill="#15150F"/><rect x="9" y="17" width="2" height="2" fill="#B33536"/><rect x="11" y="17" width="2" height="2" fill="#B33536"/><rect x="13" y="17" width="2" height="2" fill="#B33536"/><rect x="15" y="17" width="2" height="2" fill="#B33536"/><rect x="17" y="17" width="2" height="2" fill="#B33536"/><rect x="19" y="17" width="2" height="2" fill="#B33536"/><rect x="21" y="17" width="2" height="2" fill="#B33536"/><rect x="23" y="17" width="2" height="2" fill="#15150F"/><rect x="25" y="17" width="2" height="2" fill="#15150F"/><rect x="7" y="19" width="2" height="2" fill="#15150F"/><rect x="9" y="19" width="2" height="2" fill="#15150F"/><rect x="11" y="19" width="2" height="2" fill="#B33536"/><rect x="13" y="19" width="2" height="2" fill="#B33536"/><rect x="15" y="19" width="2" height="2" fill="#B33536"/><rect x="17" y="19" width="2" height="2" fill="#B33536"/><rect x="19" y="19" width="2" height="2" fill="#B33536"/><rect x="21" y="19" width="2" height="2" fill="#15150F"/><rect x="23" y="19" width="2" height="2" fill="#15150F"/><rect x="9" y="21" width="2" height="2" fill="#15150F"/><rect x="11" y="21" width="2" height="2" fill="#15150F"/><rect x="13" y="21" width="2" height="2" fill="#B33536"/><rect x="15" y="21" width="2" height="2" fill="#B33536"/><rect x="17" y="21" width="2" height="2" fill="#B33536"/><rect x="19" y="21" width="2" height="2" fill="#15150F"/><rect x="21" y="21" width="2" height="2" fill="#15150F"/><rect x="11" y="23" width="2" height="2" fill="#15150F"/><rect x="13" y="23" width="2" height="2" fill="#15150F"/><rect x="15" y="23" width="2" height="2" fill="#B33536"/><rect x="17" y="23" width="2" height="2" fill="#15150F"/><rect x="19" y="23" width="2" height="2" fill="#15150F"/><rect x="13" y="25" width="2" height="2" fill="#15150F"/><rect x="15" y="25" width="2" height="2" fill="#15150F"/><rect x="17" y="25" width="2" height="2" fill="#15150F"/></svg>