<svg xmlns="http://www.w3.org/2000/svg" width="32" height="32" viewBox="0 0 32 32" shape-rendering="crispEdges"><rect x="9" y="1" width="2" height="2" fill="#15150F"/><rect x="11" y="1" width="2" height="2" fill="#15150F"/><rect x="13" y="1" width="2" height="2" fill="#15150F"/><rect x="9" y="3" width="2" height="2" fill="#15150F"/><rect x="11" y="3" width="2" height="2" fill="#EFE4CE"/><rect x="13" y="3" width="2" height="2" fill="#15150F"/><rect x="9" y="5" width="2" height="2" fill="#15150F"/><rect x="11" y="5" width="2" height="2" fill="#EFE4CE"/><rect x="13" y="5" width="2" height="2" fill="#15150F"/><rect x="9" y="7" width="2" height="2" fill="#15150F"/><rect x="11" y="7" width="2" height="2" fill="#EFE4CE"/><rect x="13" y="7" width="2" height="2" fill="#15150F"/><rect x="9" y="9" width="2" height="2" fill="#15150F"/><rect x="11" y="9" width="2" height="2" fill="#EFE4CE"/><rect x="13" y="9" width="2" height="2" fill="#15150F"/><rect x="9" y="11" width="2" height="2" fill="#15150F"/><rect x="11" y="11" width="2" height="2" fill="#EFE4CE"/><rect x="13" y="11" width="2" height="2" fill="#15150F"/><rect x="15" y="11" width="2" height="2" fill="#15150F"/><rect x="17" y="11" width="2" height="2" fill="#15150F"/><rect x="19" y="11" width="2" height="2" fill="#15150F"/><rect x="9" y="13" width="2" height="2" fill="#15150F"/><rect x="11" y="13" width="2" height="2" fill="#EFE4CE"/><rect x="13" y="13" width="2" height="2" fill="#EFE4CE"/><rect x="15" y="13" width="2" height="2" fill="#15150F"/><rect x="17" y="13" width="2" height="2" fill="#EFE4CE"/><rect x="19" y="13" width="2" height="2" fill="#15150F"/><rect x="21" y="13" width="2" height="2" fill="#15150F"/><rect x="23" y="13" width="2" height="2" fill="#15150F"/><rect x="3" y="15" width="2" height="2" fill="#15150F"/><rect x="5" y="15" width="2" height="2" fill="#15150F"/><rect x="7" y="15" width="2" height="2" fill="#15150F"/><rect x="9" y="15" width="2" height="2" fill="#EFE4CE"/><rect x="11" y="15" width="2" height="2" fill="#EFE4CE"/><rect x="13" y="15" width="2" height="2" fill="#EFE4CE"/><rect x="15" y="15" width="2" height="2" fill="#EFE4CE"/><rect x="17" y="15" width="2" height="2" fill="#EFE4CE"/><rect x="19" y="15" width="2" height="2" fill="#EFE4CE"/><rect x="21" y="15" width="2" height="2" fill="#15150F"/><rect x="23" y="15" width="2" height="2" fill="#EFE4CE"/><rect x="25" y="15" width="2" height="2" fill="#15150F"/><rect x="3" y="17" width="2" height="2" fill="#15150F"/><rect x="5" y="17" width="2" height="2" fill="#EFE4CE"/><rect x="7" y="17" width="2" height="2" fill="#15150F"/><rect x="9" y="17" width="2" height="2" fill="#EFE4CE"/><rect x="11" y="17" width="2" height="2" fill="#EFE4CE"/><rect x="13" y="17" width="2" height="2" fill="#EFE4CE"/><rect x="15" y="17" width="2" height="2" fill="#EFE4CE"/><rect x="17" y="17" width="2" height="2" fill="#EFE4CE"/><rect x="19" y="17" width="2" height="2" fill="#EFE4CE"/><rect x="21" y="17" width="2" height="2" fill="#EFE4CE"/><rect x="23" y="17" width="2" height="2" fill="#EFE4CE"/><rect x="25" y="17" width="2" height="2" fill="#15150F"/><rect x="3" y="19" width="2" height="2" fill="#15150F"/><rect x="5" y="19" width="2" height="2" fill="#EFE4CE"/><rect x="7" y="19" width="2" height="2" fill="#EFE4CE"/><rect x="9" y="19" width="2" height="2" fill="#EFE4CE"/><rect x="11" y="19" width="2" height="2" fill="#EFE4CE"/><rect x="13" y="19" width="2" height="2" fill="#EFE4CE"/><rect x="15" y="19" width="2" height="2" fill="#EFE4CE"/><rect x="17" y="19" width="2" height="2" fill="#EFE4CE"/><rect x="19" y="19" width="2" height="2" fill="#EFE4CE"/><rect x="21" y="19" width="2" height="2" fill="#EFE4CE"/><rect x="23" y="19" width="2" height="2" fill="#EFE4CE"/><rect x="25" y="19" width="2" height="2" fill="#15150F"/><rect x="5" y="21" width="2" height="2" fill="#15150F"/><rect x="7" y="21" width="2" height="2" fill="#EFE4CE"/><rect x="9" y="21" width="2" height="2" fill="#EFE4CE"/><rect x="11" y="21" width="2" height="2" fill="#EFE4CE"/><rect x="13" y="21" width="2" height="2" fill="#EFE4CE"/><rect x="15" y="21" width="2" height="2" fill="#EFE4CE"/><rect x="17" y="21" width="2" height="2" fill="#EFE4CE"/><rect x="19" y="21" width="2" height="2" fill="#EFE4CE"/><rect x="21" y="21" width="2" height="2" fill="#EFE4CE"/><rect x="23" y="21" width="2" height="2" fill="#15150F"/><rect x="7" y="23" width="2" height="2" fill="#15150F"/><rect x="9" y="23" width="2" height="2" fill="#EFE4CE"/><rect x="11" y="23" width="2" height="2" fill="#EFE4CE"/><rect x="13" y="23" width="2" height="2" fill="#EFE4CE"/><rect x="15" y="23" width="2" height="2" fill="#EFE4CE"/><rect x="17" y="23" width="2" height="2" fill="#EFE4CE"/><rect x="19" y="23" width="2" height="2" fill="#EFE4CE"/><rect x="21" y="23" width="2" height="2" fill="#EFE4CE"/><rect x="23" y="23" width="2" height="2" fill="#15150F"/><rect x="9" y="25" width="2" height="2" fill="#15150F"/><rect x="11" y="25" width="2" height="2" fill="#A5A18D"/><rect x="13" y="25" width="2" height="2" fill="#A5A18D"/><rect x="15" y="25" width="2" height="2" fill="#A5A18D"/><rect x="17" y="25" width="2" height="2" fill="#A5A18D"/><rect x="19" y="25" width="2" height="2" fill="#A5A18D"/><rect x="21" y="25" width="2" height="2" fill="#15150F"/><rect x="9" y="27" width="2" height="2" fill="#15150F"/><rect x="11" y="27" width="2" height="2" fill="#EFE4CE"/><rect x="13" y="27" width="2" height="2" fill="#EFE4CE"/><rect x="15" y="27" width="2" height="2" fill="#EFE4CE"/><rect x="17" y="27" width="2" height="2" fill="#EFE4CE"/><rect x="19" y="27" width="2" height="2" fill="#EFE4CE"/><rect x="21" y="27" width="2" height="2" fill="#15150F"/><rect x="9" y="29" width="2" height="2" fill="#15150F"/><rect x="11" y="29" width="2" height="2" fill="#15150F"/><rect x="13" y="29" width="2" height="2" fill="#15150F"/><rect x="15" y="29" width="2" height="2" fill="#15150F"/><rect x="17" y="29" width="2" height="2" fill="#15150F"/><rect x="19" y="29" width="2" height="2" fill="#15150F"/><rect x="21" y="29" width="2" height="2" fill="#15150F"/></svg>